<?xml version="1.0" encoding="utf-8"?>
<!-- Generator: Adobe Illustrator 26.1.0, SVG Export Plug-In . SVG Version: 6.00 Build 0)  -->
<svg version="1.1"
	 id="svg10" xmlns:cc="http://creativecommons.org/ns#" xmlns:dc="http://purl.org/dc/elements/1.1/" xmlns:inkscape="http://www.inkscape.org/namespaces/inkscape" xmlns:rdf="http://www.w3.org/1999/02/22-rdf-syntax-ns#" xmlns:sodipodi="http://sodipodi.sourceforge.net/DTD/sodipodi-0.dtd" xmlns:svg="http://www.w3.org/2000/svg"
	 xmlns="http://www.w3.org/2000/svg" xmlns:xlink="http://www.w3.org/1999/xlink" x="0px" y="0px" viewBox="0 0 84.06 32"
	 style="enable-background:new 0 0 84.06 32;" xml:space="preserve">
<style type="text/css">
	.st0{fill-rule:evenodd;clip-rule:evenodd;fill:#434C78;}
	.st1{fill-rule:evenodd;clip-rule:evenodd;fill:#CC4154;}
	.st2{fill-rule:evenodd;clip-rule:evenodd;fill:#555F8E;}
	.st3{fill:#CD7702;}
</style>
<sodipodi:namedview  bordercolor="#666666" borderopacity="1" gridtolerance="10" guidetolerance="10" id="namedview12" inkscape:current-layer="svg10" inkscape:cx="78.5" inkscape:cy="16" inkscape:pageopacity="0" inkscape:pageshadow="2" inkscape:window-height="1027" inkscape:window-maximized="1" inkscape:window-width="1920" inkscape:window-x="-8" inkscape:window-y="-8" inkscape:zoom="1.9299363" objecttolerance="10" pagecolor="#ffffff" showgrid="false">
	</sodipodi:namedview>
<path id="CLAP_MESSENGER" class="st0" d="M43.02,25.2c-0.71,0-1.56-0.14-1.98-0.71c-0.43-0.43-0.57-0.99-0.57-1.56v-7.51
	c0-0.71,0.28-1.42,0.71-1.84c0.57-0.43,1.28-0.57,1.98-0.57s1.56,0.14,2.27,0.43L46,11.59c-0.99-0.57-2.13-0.71-3.26-0.71
	c-0.85,0-1.7,0.14-2.41,0.57c-0.57,0.43-1.13,0.85-1.56,1.56c-0.43,0.85-0.57,1.7-0.43,2.55v7.37c0,0.85,0.14,1.7,0.57,2.41
	c0.28,0.57,0.71,1.13,1.28,1.42c0.43,0.28,0.99,0.43,1.56,0.57c0.43,0,0.85,0,1.13,0c1.28,0,2.55-0.28,3.69-0.71l-0.28-1.84
	C45.29,25.06,44.16,25.2,43.02,25.2z M56.92,25.2h-6.1V11.16h-2.13v15.88h8.22V25.2L56.92,25.2z M64.57,11.16h-2.69l-4.25,15.88
	h2.27l1.28-4.68h4.25l1.28,4.68h2.41L64.57,11.16z M61.6,20.24l1.56-5.67l1.7,5.67H61.6L61.6,20.24z M73.22,13.29h2.84
	c0.71,0,1.56,0.14,2.13,0.71c0.57,0.71,0.85,1.56,0.71,2.55v1.13c0,0.43,0,0.71-0.14,0.99c-0.14,0.43-0.43,0.85-0.71,1.28
	c-0.57,0.28-1.13,0.57-1.84,0.57h-2.98V13.29L73.22,13.29z M73.22,22.36h3.4c2.84,0,4.4-1.98,4.4-5.95c0-1.28-0.28-2.69-1.13-3.69
	c-0.85-0.99-2.13-1.56-3.4-1.42h-5.39v15.88h2.13L73.22,22.36L73.22,22.36z"/>
<path id="Rounded_Rectangle_1" class="st1" d="M3.3,1.18h14.17c0.69,0,1.23,0.54,1.23,1.23v12.89c0,2.01-1.67,3.68-3.68,3.68l0,0
	H2.31c-0.69,0-1.23-0.54-1.23-1.23V3.38C1.09,2.16,2.07,1.18,3.3,1.18z"/>
<path id="Rounded_Rectangle_1_copy_2" class="st2" d="M22.02,1.32h4.31c2.16,0,3.87,1.72,3.87,3.87v21.32
	c0,2.25-1.81,4.07-4.07,4.07H10.35l3.92-8.04c0,0,7.65,0.1,7.55-4.9C21.82,11.42,22.02,1.32,22.02,1.32z"/>
<path id="Rounded_Rectangle_1_copy" class="st3" d="M1.24,22.4h8.97l0,0v8.19l0,0H4.18c-1.62,0-2.94-1.32-2.94-2.94
	C1.24,27.7,1.24,22.4,1.24,22.4z"/>
</svg>
